# xmcd
#
# Track frame offsets:
#	150
#	16725
#	34095
#	50387
#	66310
#	83385
#	99902
#	122157
#	137437
#	153797
#	174792
#	193060
#	210250
#
# Disc length: 3056 seconds
#
# Revision: 2
# Processed by: cddbd v1.5.1PL0 Copyright (c) Steve Scherf et al.
# Submitted via: audiograbber 1.83.01
#
DISCID=920bee0d
DTITLE=Ty Herndon - This Is Ty Herndon (Greatest Hits)
DYEAR=2002
DGENRE=Country
TTITLE0=What Mattered Most
TTITLE1=Living In A Moment
TTITLE2=Steam
TTITLE3=It Must Be Love
TTITLE4=Hands Of A Working Man
TTITLE5=Loved Too Much
TTITLE6=Heart Half Empty (With Stephanie Bentley)
TTITLE7=I Want My Goodbye Back
TTITLE8=A Man Holdin' On (To A Woman Lettin' Go)
TTITLE9=You Can Leave Your Hat On
TTITLE10=If The Road Runs Out
TTITLE11=A Few Short Years
TTITLE12=I'd Move Heaven And Earth
EXTD=YEAR: 2002 ID3G: 2
EXTT0=
EXTT1=
EXTT2=
EXTT3=
EXTT4=
EXTT5=
EXTT6=
EXTT7=
EXTT8=
EXTT9=
EXTT10=
EXTT11=
EXTT12=
PLAYORDER=
